<svg width="25" height="24" viewBox="0 0 25 24" fill="none" xmlns="http://www.w3.org/2000/svg">
<path d="M22.5368 20.6065L19.0994 17.2458L19.0188 17.1233C18.869 16.9742 18.6642 16.8902 18.4504 16.8902C18.2366 16.8902 18.0318 16.9742 17.882 17.1233C14.9607 19.8033 10.4594 19.949 7.36326 17.4637C4.26711 14.9784 3.53692 10.6334 5.65693 7.31017C7.77695 3.98697 12.0893 2.71685 15.7341 4.34214C19.3789 5.96743 21.2251 9.98379 20.0483 13.7276C19.9635 13.9981 20.0328 14.2922 20.23 14.4992C20.4272 14.7062 20.7223 14.7946 21.0043 14.7311C21.2862 14.6676 21.5121 14.4619 21.5969 14.1914C23.0036 9.74864 20.879 4.96755 16.5974 2.94106C12.3157 0.914562 7.16209 2.25082 4.4703 6.08542C1.77852 9.92001 2.35643 15.1021 5.83018 18.2795C9.30393 21.4569 14.631 21.6759 18.3654 18.7949L21.4089 21.7705C21.7232 22.0765 22.2314 22.0765 22.5457 21.7705C22.8598 21.4602 22.8598 20.9606 22.5457 20.6503L22.5368 20.6065Z" fill="#2D2F1B"/>
</svg>
